<svg xmlns="http://www.w3.org/2000/svg" viewBox="0 0 128 128">
  <defs>
    <linearGradient id="grad" x1="0%" y1="0%" x2="100%" y2="100%">
      <stop offset="0%" style="stop-color:#667eea"/>
      <stop offset="100%" style="stop-color:#764ba2"/>
    </linearGradient>
  </defs>
  <rect width="128" height="128" rx="28" fill="url(#grad)"/>
  <path d="M64 76c8.8 0 16-7.2 16-16V36c0-8.8-7.2-16-16-16S48 27.2 48 36v24c0 8.8 7.2 16 16 16z" fill="white"/>
  <path d="M88 60c0 13.3-10.7 24-24 24s-24-10.7-24-24h-8c0 16.5 12.5 30.3 28 32.2V104h8V92.2c15.5-1.9 28-15.7 28-32.2h-8z" fill="white"/>
</svg>
